<mxfile host="app.diagrams.net" modified="2024-05-30T14:40:54.519Z" agent="Mozilla/5.0 (Windows NT 10.0; Win64; x64) AppleWebKit/537.36 (KHTML, like Gecko) Chrome/124.0.0.0 Safari/537.36 OPR/110.0.0.0" etag="siCdKMLo5bJCh9CbkSPz" version="24.4.10" type="device">
  <diagram name="Strona-1" id="Zxa2NFSQPGS5-Wly8h24">
    <mxGraphModel dx="1620" dy="781" grid="1" gridSize="10" guides="1" tooltips="1" connect="1" arrows="1" fold="1" page="1" pageScale="1" pageWidth="827" pageHeight="1169" math="0" shadow="0">
      <root>
        <mxCell id="0" />
        <mxCell id="1" parent="0" />
        <mxCell id="weqU8qUuTFtm4Om_nF__-1" value="" style="rounded=0;whiteSpace=wrap;html=1;" vertex="1" parent="1">
          <mxGeometry y="40" width="1030" height="60" as="geometry" />
        </mxCell>
        <mxCell id="weqU8qUuTFtm4Om_nF__-4" value="" style="rounded=0;whiteSpace=wrap;html=1;" vertex="1" parent="1">
          <mxGeometry x="890" y="40" width="120" height="60" as="geometry" />
        </mxCell>
        <mxCell id="weqU8qUuTFtm4Om_nF__-5" value="Wyloguj siÄ™" style="text;html=1;align=center;verticalAlign=middle;whiteSpace=wrap;rounded=0;" vertex="1" parent="1">
          <mxGeometry x="920" y="55" width="60" height="30" as="geometry" />
        </mxCell>
        <mxCell id="weqU8qUuTFtm4Om_nF__-6" value="" style="rounded=0;whiteSpace=wrap;html=1;" vertex="1" parent="1">
          <mxGeometry y="100" width="1030" height="600" as="geometry" />
        </mxCell>
        <mxCell id="weqU8qUuTFtm4Om_nF__-7" value="&lt;font style=&quot;font-size: 18px;&quot;&gt;LOGO&lt;/font&gt;" style="text;html=1;align=center;verticalAlign=middle;resizable=0;points=[];autosize=1;strokeColor=none;fillColor=none;" vertex="1" parent="1">
          <mxGeometry x="30" y="50" width="80" height="40" as="geometry" />
        </mxCell>
        <mxCell id="weqU8qUuTFtm4Om_nF__-10" value="" style="whiteSpace=wrap;html=1;aspect=fixed;" vertex="1" parent="1">
          <mxGeometry x="110" y="170" width="320" height="320" as="geometry" />
        </mxCell>
        <mxCell id="weqU8qUuTFtm4Om_nF__-22" value="&quot;Drag and drop&quot;" style="text;html=1;align=center;verticalAlign=middle;resizable=0;points=[];autosize=1;strokeColor=none;fillColor=none;" vertex="1" parent="1">
          <mxGeometry x="215" y="315" width="110" height="30" as="geometry" />
        </mxCell>
        <mxCell id="weqU8qUuTFtm4Om_nF__-23" value="" style="rounded=0;whiteSpace=wrap;html=1;" vertex="1" parent="1">
          <mxGeometry x="110" y="525" width="320" height="105" as="geometry" />
        </mxCell>
        <mxCell id="weqU8qUuTFtm4Om_nF__-24" value="Dodaj opis..." style="text;html=1;align=center;verticalAlign=middle;resizable=0;points=[];autosize=1;strokeColor=none;fillColor=none;" vertex="1" parent="1">
          <mxGeometry x="120" y="530" width="90" height="30" as="geometry" />
        </mxCell>
        <mxCell id="weqU8qUuTFtm4Om_nF__-25" value="" style="rounded=0;whiteSpace=wrap;html=1;" vertex="1" parent="1">
          <mxGeometry x="490" y="180" width="120" height="60" as="geometry" />
        </mxCell>
        <mxCell id="weqU8qUuTFtm4Om_nF__-26" value="Cena" style="text;html=1;align=center;verticalAlign=middle;resizable=0;points=[];autosize=1;strokeColor=none;fillColor=none;" vertex="1" parent="1">
          <mxGeometry x="525" y="195" width="50" height="30" as="geometry" />
        </mxCell>
        <mxCell id="weqU8qUuTFtm4Om_nF__-27" value="" style="rounded=0;whiteSpace=wrap;html=1;" vertex="1" parent="1">
          <mxGeometry x="490" y="270" width="120" height="60" as="geometry" />
        </mxCell>
        <mxCell id="weqU8qUuTFtm4Om_nF__-28" value="Nazwa" style="text;html=1;align=center;verticalAlign=middle;resizable=0;points=[];autosize=1;strokeColor=none;fillColor=none;" vertex="1" parent="1">
          <mxGeometry x="520" y="285" width="60" height="30" as="geometry" />
        </mxCell>
        <mxCell id="weqU8qUuTFtm4Om_nF__-29" value="" style="rounded=0;whiteSpace=wrap;html=1;" vertex="1" parent="1">
          <mxGeometry x="740" y="525" width="200" height="105" as="geometry" />
        </mxCell>
        <mxCell id="weqU8qUuTFtm4Om_nF__-30" value="&lt;font style=&quot;font-size: 24px;&quot;&gt;Dodaj&lt;/font&gt;" style="text;html=1;align=center;verticalAlign=middle;resizable=0;points=[];autosize=1;strokeColor=none;fillColor=none;" vertex="1" parent="1">
          <mxGeometry x="795" y="557.5" width="90" height="40" as="geometry" />
        </mxCell>
      </root>
    </mxGraphModel>
  </diagram>
</mxfile>
